<svg width="44" height="44" viewBox="0 0 44 44" fill="none" xmlns="http://www.w3.org/2000/svg">
<rect x="0.44" y="0.44" width="43.12" height="43.12" rx="21.56" stroke="#FD5022" stroke-width="0.88"/>
<path d="M19.9742 14.5579C19.7604 14.9649 19.6049 15.4115 19.5208 15.8886L17.4803 27.4607C17.3926 27.9583 17.3891 28.4512 17.4596 28.9249C16.2136 28.9208 15.0216 28.5997 13.9729 28.0312L15.5174 26.0502C14.7522 25.7171 14.0813 25.194 13.5717 24.5331L12.0271 26.5141C11.0205 25.4186 10.3328 24.0131 10.1371 22.4325C10.1082 22.1991 10.0907 21.9669 10.084 21.7363L12.5803 22.0846C12.4816 21.2242 12.6108 20.3893 12.9204 19.6409L10.4287 19.2932C10.9667 17.6085 12.0974 16.1583 13.6001 15.2256L14.5449 17.5573C15.1953 17.0745 15.9735 16.7457 16.8319 16.6316L15.8854 14.2955C16.1106 14.2458 16.3401 14.2062 16.5734 14.1773C17.7594 14.0304 18.9174 14.1763 19.9742 14.5579Z" fill="#FD5022"/>
<path fill-rule="evenodd" clip-rule="evenodd" d="M24.4084 14.4348C23.1681 14.2161 21.9853 15.0443 21.7666 16.2846L19.7261 27.8567C19.5074 29.097 20.3356 30.2797 21.5759 30.4985L29.2 31.8428C30.4404 32.0615 31.6231 31.2333 31.8418 29.993L33.8823 18.421C34.101 17.1806 33.2728 15.9979 32.0325 15.7791L24.4084 14.4348ZM27.5183 20.8942C28.3266 20.3282 29.5635 20.5464 30.1295 21.3547C30.6955 22.163 30.4774 23.3998 29.669 23.9658L26.2741 26.343L23.897 22.9481C23.331 22.1398 23.5491 20.9029 24.3574 20.3369C25.1657 19.7709 26.4026 19.989 26.9686 20.7973L27.195 21.1206L27.5183 20.8942Z" fill="#FD5022"/>
</svg>
