<svg width="44" height="44" viewBox="0 0 44 44" fill="none" xmlns="http://www.w3.org/2000/svg">
<rect x="0.44" y="0.44" width="43.12" height="43.12" rx="21.56" stroke="#A9A71E" stroke-width="0.88"/>
<path d="M32 15.7217C32 18.2028 28.9757 19.501 25.9879 19.501C23.0001 19.501 19.9758 18.2028 19.9758 15.7217C19.9758 10.7594 32 10.7594 32 15.7217Z" fill="#A9A71E"/>
<path d="M25.9879 20.477C28.9806 20.477 32 19.1668 32 16.6794V18.5782C32 21.0656 28.9806 22.3757 25.9879 22.3757C22.9952 22.3757 19.9758 21.0656 19.9758 18.5782V16.6794C19.9758 19.1668 22.9952 20.477 25.9879 20.477Z" fill="#A9A71E"/>
<path d="M25.9879 23.3517C28.9806 23.3517 32 22.0416 32 19.5542V21.453C32 23.9403 28.9806 25.2505 25.9879 25.2505C22.9952 25.2505 19.9758 23.9403 19.9758 21.453V19.5542C19.9758 22.0416 22.9952 23.3517 25.9879 23.3517Z" fill="#A9A71E"/>
<path d="M25.9879 26.2265C28.9806 26.2265 32 24.9163 32 22.4289V24.3277C32 26.8151 28.9806 28.1252 25.9879 28.1252C22.9952 28.1252 19.9758 26.8151 19.9758 24.3277V22.4289C19.9758 24.9163 22.9952 26.2265 25.9879 26.2265Z" fill="#A9A71E"/>
<path d="M25.9879 29.1012C28.9806 29.1012 32 27.7911 32 25.3037V27.2025C32 29.6899 28.9806 31 25.9879 31C22.9952 31 19.9758 29.6899 19.9758 27.2025V25.3037C19.9758 27.7911 22.9952 29.1012 25.9879 29.1012Z" fill="#A9A71E"/>
<path d="M16.3804 24.2477C17.4162 24.2477 18.5726 24.0757 19.4521 23.7567C19.4521 24.6183 19.4521 24.4331 19.4521 25.2948C18.5724 25.6132 17.4145 25.7812 16.3804 25.7812C13.7412 25.7812 11 24.7231 11 22.7144V21.181C11 23.5207 14.4737 24.2477 16.3804 24.2477Z" fill="#A9A71E"/>
<path d="M16.3804 26.6185C17.4193 26.6185 18.5705 26.4361 19.4521 26.1137C19.4521 26.682 19.4521 26.3378 19.4521 27.6549C18.5739 27.9775 17.4187 28.1518 16.3804 28.1518C14.4577 28.1518 11 27.4226 11 25.0851V23.5517C11 25.5604 13.7412 26.6185 16.3804 26.6185Z" fill="#A9A71E"/>
<path d="M19.4521 16.3644V22.8465C18.5722 23.26 17.4208 23.4922 16.3804 23.4922C13.7456 23.4922 11 22.1541 11 19.5968C11 16.0361 16.332 14.9648 19.4521 16.3644Z" fill="#A9A71E"/>
</svg>
