<svg width="44" height="44" viewBox="0 0 44 44" fill="none" xmlns="http://www.w3.org/2000/svg">
<rect x="0.44" y="0.44" width="43.12" height="43.12" rx="21.56" stroke="#AE6BB5" stroke-width="0.88"/>
<path fill-rule="evenodd" clip-rule="evenodd" d="M25.8411 31.7236C26.1521 31.9039 26.5014 31.999 26.8567 32C27.1656 31.9985 27.4708 31.9264 27.7504 31.7887C28.03 31.651 28.2777 31.451 28.4763 31.2027C28.6831 30.9454 28.8341 30.644 28.9187 30.3193C29.0034 29.9946 29.0197 29.6545 28.9665 29.3225L28.2216 24.5548L31.3688 21.1875C31.6546 20.8815 31.854 20.4983 31.9448 20.0805C32.0355 19.6627 32.0141 19.2267 31.8829 18.8209C31.7605 18.4249 31.536 18.0724 31.2342 17.8024C30.9324 17.5325 30.5653 17.3557 30.1735 17.2918L25.8638 16.6044L23.9274 12.2977C23.5673 11.4975 22.829 11 22.0001 11C21.1712 11 20.4325 11.4975 20.0728 12.2977L18.1364 16.6044L13.8267 17.2918C13.4349 17.3556 13.0677 17.5323 12.7659 17.8023C12.4641 18.0723 12.2396 18.4249 12.1173 18.8209C11.986 19.2266 11.9644 19.6626 12.0551 20.0804C12.1457 20.4982 12.3449 20.8814 12.6306 21.1875L15.7778 24.5548L15.0329 29.3225C14.9797 29.6545 14.996 29.9946 15.0806 30.3193C15.1653 30.644 15.3163 30.9454 15.5232 31.2027C15.8356 31.5982 16.2699 31.8668 16.7509 31.9619C17.2319 32.057 17.7294 31.9727 18.1575 31.7236L22.0001 29.5062L25.8411 31.7236ZM26.2533 30.9389C26.4378 31.0475 26.6457 31.1047 26.8572 31.105C27.0432 31.1043 27.2268 31.061 27.3951 30.978C27.5635 30.8951 27.7125 30.7745 27.8318 30.6247C27.9586 30.4664 28.051 30.2809 28.1026 30.0812C28.1542 29.8815 28.1638 29.6725 28.1307 29.4685L27.3834 24.6865C27.3619 24.5542 27.3704 24.4185 27.408 24.2902C27.4457 24.162 27.5115 24.0448 27.6002 23.9482L30.7643 20.5611C30.9396 20.3726 31.0616 20.1366 31.1167 19.8796C31.1719 19.6225 31.1581 19.3544 31.0768 19.1051C31.0037 18.8656 30.8688 18.6521 30.687 18.4883C30.5052 18.3246 30.2836 18.2171 30.0471 18.1777L25.6721 17.4805C25.5509 17.4598 25.4365 17.4079 25.3391 17.3296C25.2416 17.2512 25.1641 17.1488 25.1135 17.0313L23.1568 12.6816C23.0566 12.4477 22.8941 12.2491 22.6889 12.1098C22.4837 11.9705 22.2445 11.8964 22.0002 11.8964C21.7559 11.8964 21.5167 11.9705 21.3115 12.1098C21.1063 12.2491 20.9438 12.4477 20.8436 12.6816L18.8857 17.0326C18.835 17.1495 18.7575 17.2515 18.6603 17.3296C18.5631 17.4078 18.4491 17.4595 18.3283 17.4805L13.9533 18.1777C13.7177 18.2177 13.4972 18.3253 13.3163 18.4887C13.1353 18.6521 13.0009 18.8649 12.9279 19.1035C12.8466 19.3527 12.8328 19.6208 12.888 19.8779C12.9431 20.135 13.0651 20.3709 13.2404 20.5595L16.4045 23.9466C16.4932 24.0432 16.5591 24.1603 16.5967 24.2886C16.6344 24.4168 16.6428 24.5526 16.6213 24.6849L15.874 29.4673C15.8409 29.6712 15.8505 29.8803 15.9021 30.08C15.9537 30.2796 16.0461 30.4651 16.1729 30.6235C16.2916 30.7729 16.4399 30.8934 16.6075 30.9765C16.775 31.0597 16.9578 31.1035 17.1432 31.105C17.3547 31.1047 17.5626 31.0475 17.7471 30.9389L21.66 28.681C21.7641 28.6205 21.8812 28.5888 22.0002 28.5888C22.1192 28.5888 22.2363 28.6205 22.3404 28.681L26.2533 30.9389Z" fill="#AE6BB5"/>
<path fill-rule="evenodd" clip-rule="evenodd" d="M24.8662 17.1523L22.9096 12.8047C22.5377 11.9753 21.4627 11.9753 21.0908 12.8047L19.1342 17.1523C19.0648 17.3121 18.959 17.4516 18.8262 17.5583C18.6933 17.665 18.5375 17.7358 18.3725 17.7643L13.9975 18.4616C13.1658 18.594 12.8334 19.7162 13.4354 20.3602L16.5994 23.7472C16.718 23.8759 16.8062 24.032 16.8568 24.203C16.9075 24.374 16.9193 24.555 16.8912 24.7316L16.144 29.514C16.0018 30.4234 16.8732 31.1169 17.6154 30.6875L21.5283 28.4316C21.6728 28.3479 21.8352 28.304 22.0002 28.304C22.1652 28.304 22.3276 28.3479 22.4721 28.4316L26.3865 30.6846C27.1307 31.1141 28.0002 30.4205 27.858 29.5112L27.1108 24.7287C27.0827 24.5521 27.0945 24.3711 27.1451 24.2001C27.1958 24.0292 27.284 23.8731 27.4025 23.7444L30.5666 20.3573C31.1686 19.7134 30.8361 18.5912 30.0045 18.4587L25.6295 17.7614C25.4645 17.7334 25.3085 17.6632 25.1754 17.557C25.0423 17.4508 24.9361 17.3118 24.8662 17.1523ZM20.0025 26.2697C20.0242 26.3136 20.0639 26.3355 20.1216 26.3355H21.9515C21.9948 26.3355 22.0309 26.3246 22.0598 26.3026C22.0958 26.2807 22.1211 26.2515 22.1355 26.2149L24.9832 19.612C24.9976 19.5754 25.0085 19.5389 25.0157 19.5023C25.0229 19.4658 25.0265 19.4292 25.0265 19.3926V19.3159C25.0265 19.2574 25.0121 19.2171 24.9832 19.1952C24.9616 19.166 24.9219 19.1513 24.8641 19.1513H19.1363C19.028 19.1513 18.9739 19.2062 18.9739 19.3159V21.345C18.9739 21.4547 19.028 21.5095 19.1363 21.5095H20.728C20.8362 21.5095 20.8904 21.4547 20.8904 21.345V20.7856H22.3521L20.0025 26.1162C19.9809 26.1674 19.9809 26.2185 20.0025 26.2697Z" fill="#AE6BB5"/>
</svg>
